<?xml version="1.0" encoding="UTF-8" standalone="no"?>
<svg
   xmlns:dc="http://purl.org/dc/elements/1.1/"
   xmlns:cc="http://creativecommons.org/ns#"
   xmlns:rdf="http://www.w3.org/1999/02/22-rdf-syntax-ns#"
   xmlns:svg="http://www.w3.org/2000/svg"
   xmlns="http://www.w3.org/2000/svg"
   xmlns:sodipodi="http://sodipodi.sourceforge.net/DTD/sodipodi-0.dtd"
   xmlns:inkscape="http://www.inkscape.org/namespaces/inkscape"
   id="Capa_1"
   data-name="Capa 1"
   viewBox="0 0 37.000001 25.889999"
   version="1.1"
   sodipodi:docname="tail.svg"
   width="37"
   height="25.889999"
   inkscape:version="0.92.4 (5da689c313, 2019-01-14)">
  <metadata
     id="metadata15">
    <rdf:RDF>
      <cc:Work
         rdf:about="">
        <dc:format>image/svg+xml</dc:format>
        <dc:type
           rdf:resource="http://purl.org/dc/dcmitype/StillImage" />
        <dc:title></dc:title>
      </cc:Work>
    </rdf:RDF>
  </metadata>
  <sodipodi:namedview
     pagecolor="#ffffff"
     bordercolor="#666666"
     borderopacity="1"
     objecttolerance="10"
     gridtolerance="10"
     guidetolerance="10"
     inkscape:pageopacity="0"
     inkscape:pageshadow="2"
     inkscape:window-width="1366"
     inkscape:window-height="705"
     id="namedview13"
     showgrid="false"
     fit-margin-top="0"
     fit-margin-left="0"
     fit-margin-right="0"
     fit-margin-bottom="0"
     inkscape:zoom="1.0231509"
     inkscape:cx="-28.670001"
     inkscape:cy="-42.800003"
     inkscape:window-x="-8"
     inkscape:window-y="-8"
     inkscape:window-maximized="1"
     inkscape:current-layer="Capa_1" />
  <defs
     id="defs4">
    <style
       id="style2">.cls-1{fill:#fff;}.cls-2{fill:none;stroke:#fff;stroke-miterlimit:10;stroke-width:5px;}</style>
  </defs>
  <path
     class="cls-1"
     d="M 33,25.39 A 25.56,25.56 0 0 1 29.09,25.08 27.47,27.47 0 0 1 19.75,21.63 38.41,38.41 0 0 1 12.84,16.69 71.91,71.91 0 0 1 7.38,11.23 C 5.1,8.77 2.83,6.23 0.65,3.55 A 7.43,7.43 0 0 1 2.3,1.98 9.57,9.57 0 0 1 7.73,0.5 a 20.36,20.36 0 0 1 14.89,7.38 7.41,7.41 0 0 1 1,1.66 c 0.41,0.82 1.08,2.19 3,5.29 2.6,4.29 4.08,6.26 6.08,8.11 a 25.11,25.11 0 0 0 2.92,2.31 25,25 0 0 1 -2.59,0.14 z"
     id="path8"
     inkscape:connector-curvature="0"
     style="fill:#ffffff" />
  <path
     d="m 7.76,1 a 19.82,19.82 0 0 1 14.49,7.18 7.21,7.21 0 0 1 1,1.58 c 0.41,0.82 1.09,2.21 3,5.33 2.6,4.29 4.16,6.36 6.17,8.22 0.6,0.54 1.21,1.06 1.86,1.55 H 33.09 A 24.53,24.53 0 0 1 29.2,24.57 26.94,26.94 0 0 1 20,21.19 38,38 0 0 1 13.17,16.31 75.09,75.09 0 0 1 7.76,10.89 C 5.59,8.57 3.42,6.07 1.32,3.57 A 7.06,7.06 0 0 1 2.61,2.41 9,9 0 0 1 7.76,1.02 m 0,-1 A 10,10 0 0 0 2,1.57 a 8.31,8.31 0 0 0 -2,2 c 2.76,3.34 5.18,6 7,8 a 69.15,69.15 0 0 0 5.5,5.5 39.13,39.13 0 0 0 7,5 28,28 0 0 0 9.5,3.5 25.16,25.16 0 0 0 8,0 25.76,25.76 0 0 1 -4,-3 c -1.88,-1.74 -3.34,-3.63 -6,-8 -3.42,-5.62 -2.79,-5.43 -4,-7 A 20.72,20.72 0 0 0 7.72,0 Z"
     id="path10"
     inkscape:connector-curvature="0" />
</svg>
